<svg width="110" height="110" viewBox="0 0 110 110" fill="none" xmlns="http://www.w3.org/2000/svg">
<path d="M55 110C85.3757 110 110 85.3757 110 55C110 24.6243 85.3757 0 55 0C24.6243 0 0 24.6243 0 55C0 85.3757 24.6243 110 55 110Z" fill="black"/>
<path d="M91.8581 47.5927C88.431 30.845 73.6132 18.2481 55.8539 18.2481C35.557 18.2481 19.102 34.7015 19.102 55C19.102 75.2985 35.5554 91.7519 55.8539 91.7519C73.6341 91.7519 88.4648 79.126 91.8693 62.351H106.784C103.217 87.286 81.7731 106.452 55.8523 106.452C27.4357 106.452 4.4 83.4167 4.4 55C4.4 26.5833 27.4373 3.54767 55.8539 3.54767C81.7747 3.54767 103.218 22.7157 106.785 47.649H91.8693" fill="white"/>
<path d="M89.4361 51.3253H34.8333C36.5621 41.9158 44.8041 34.7867 54.7137 34.7867C63.2838 34.7867 70.6091 40.121 73.5488 47.649H88.8507H88.8523C85.4768 31.8952 71.4743 20.0862 54.7137 20.0862C35.4316 20.0862 19.8 35.7178 19.8 55C19.8 56.2415 19.8643 57.4669 19.9914 58.6747H74.5925C72.8637 68.0842 64.6218 75.2133 54.7121 75.2133C46.1421 75.2133 38.8168 69.8789 35.877 62.351H20.5751C23.9507 78.1032 37.9532 89.9137 54.7137 89.9137C73.9959 89.9137 89.6275 74.2821 89.6275 55C89.6275 53.7392 89.5599 52.4944 89.4297 51.2674" fill="white"/>
</svg>
