<svg width="150" height="150" viewBox="0 0 150 150" fill="none" xmlns="http://www.w3.org/2000/svg">
<path d="M75 150C116.421 150 150 116.421 150 75C150 33.5786 116.421 0 75 0C33.5786 0 0 33.5786 0 75C0 116.421 33.5786 150 75 150Z" fill="black"/>
<path d="M125.261 64.8991C120.588 42.0614 100.382 24.8838 76.1645 24.8838C48.4868 24.8838 26.0482 47.3202 26.0482 75C26.0482 102.68 48.4846 125.116 76.1645 125.116C100.41 125.116 120.634 107.899 125.276 85.0241H145.614C140.75 119.026 111.509 145.162 76.1623 145.162C37.4123 145.162 6 113.75 6 75C6 36.25 37.4145 4.83774 76.1645 4.83774C111.511 4.83774 140.752 30.9759 145.616 64.9759H125.276" fill="white"/>
<path d="M121.958 69.989H47.5C49.8575 57.1579 61.0965 47.4364 74.6097 47.4364C86.2961 47.4364 96.2851 54.7105 100.294 64.9759H121.16H121.162C116.559 43.4934 97.4649 27.3903 74.6097 27.3903C48.3158 27.3903 27 48.7061 27 75C27 76.693 27.0877 78.364 27.261 80.0109H101.717C99.3597 92.8421 88.1206 102.564 74.6075 102.564C62.9211 102.564 52.932 95.2894 48.9232 85.0241H28.057C32.6601 106.504 51.7544 122.61 74.6097 122.61C100.904 122.61 122.219 101.294 122.219 75C122.219 73.2807 122.127 71.5833 121.95 69.9101" fill="white"/>
</svg>
